# xmcd
#
# Track frame offsets: 
#        150
#        14640
#        27660
#        40292
#        56035
#        69295
#        76475
#        92325
#        100152
#        116580
#        131642
#        143090
#        152802
#        165400
#        174097
#        183665
#        195165
#        202497
#        214425
#        231715
#        242767
#        253820
#        262085
#        275625
#        284635
#
# Disc length: 3964 seconds
#
# Revision: 9
# Processed by: cddbd v1.5.2PL0 Copyright (c) Steve Scherf et al.
# Submitted via: ExactAudioCopy v1.0b1
#
DISCID=820f7a19
DTITLE=Hank Williams - The Complete Hank Williams [CD 10)
DYEAR=1998
DGENRE=Country
TTITLE0=Lovesick Blues
TTITLE1=Move It On Over
TTITLE2=You're Gonna Change (Or I'm Gonna Leave)
TTITLE3=I Just Don't Like This Kind Of Livin'
TTITLE4=Talk With Minnie Pearl
TTITLE5=They'll Never Take Her Love From Me
TTITLE6=Long Gone Lonesome Blues
TTITLE7=Why Don't You Love Me
TTITLE8=Talk With Minnie Pearl
TTITLE9=Moanin' The Blues
TTITLE10=Nobody's Lonesome For Me
TTITLE11=Dear John
TTITLE12=Hey, Good Lookin'
TTITLE13=Honky Tonk Blues
TTITLE14=Let The Spirit Descend
TTITLE15=Cold Cold Heart
TTITLE16=Baby, We're Really In Love
TTITLE17=The Old Country Church
TTITLE18=A Tramp On The Street
TTITLE19=I'll Have A New Body (I'll Have A New Life)
TTITLE20=I Want To Live And Love
TTITLE21=Where The Soul Of Man Never Dies
TTITLE22=The Prodigal Son
TTITLE23=I Can't Help It (If I'm Still In Love With You)
TTITLE24=The Apology No. 2
EXTD=
EXTT0=
EXTT1=
EXTT2=
EXTT3=
EXTT4=
EXTT5=
EXTT6=
EXTT7=
EXTT8=
EXTT9=
EXTT10=
EXTT11=
EXTT12=
EXTT13=
EXTT14=
EXTT15=
EXTT16=
EXTT17=
EXTT18=
EXTT19=
EXTT20=
EXTT21=
EXTT22=
EXTT23=
EXTT24=
PLAYORDER=
